<svg width="375" height="235" viewBox="0 0 375 235" fill="none" xmlns="http://www.w3.org/2000/svg">
<g opacity="0.24">
<path d="M48.4419 114.037V162.066" stroke="#FFB0B0" stroke-linecap="square"/>
<rect x="45" y="118.839" width="6.88406" height="39.7956" rx="2" fill="#FFB0B0"/>
<path d="M67.0297 111.978V142.168" stroke="#D4EDFF" stroke-linecap="square"/>
<rect x="63.5879" y="116.781" width="6.88406" height="21.2701" rx="2" fill="#D4EDFF"/>
<path d="M85.6157 94.1387V173.73" stroke="#FFB0B0" stroke-linecap="square"/>
<rect x="82.1738" y="102.372" width="6.88406" height="60.3796" rx="2" fill="#FFB0B0"/>
<path d="M104.204 118.839V152.46" stroke="#D4EDFF" stroke-linecap="square"/>
<rect x="100.762" y="121.584" width="6.88406" height="28.1314" rx="2" fill="#D4EDFF"/>
<path d="M122.79 94.1387V132.562" stroke="#FFB0B0" stroke-linecap="square"/>
<rect x="119.348" y="99.6279" width="6.88406" height="29.5037" rx="2" fill="#FFB0B0"/>
<path d="M141.377 60.5181V118.153" stroke="#D4EDFF" stroke-linecap="square"/>
<rect x="137.936" y="70.124" width="6.88406" height="38.4234" rx="2" fill="#D4EDFF"/>
<path d="M159.963 107.861V138.737" stroke="#FFB0B0" stroke-linecap="square"/>
<rect x="156.521" y="109.233" width="6.88406" height="21.9562" rx="2" fill="#FFB0B0"/>
<path d="M178.551 94.8247V145.598" stroke="#D4EDFF" stroke-linecap="square"/>
<rect x="175.109" y="100.314" width="6.88406" height="39.7956" rx="2" fill="#D4EDFF"/>
<path d="M196.45 28.27V146.285" stroke="#FFB0B0" stroke-linecap="square"/>
<rect x="193.008" y="41.3066" width="6.88406" height="71.3577" rx="2" fill="#FFB0B0"/>
<path d="M215.036 74.9272V121.584" stroke="#D4EDFF" stroke-linecap="square"/>
<rect x="211.594" y="79.0439" width="6.88406" height="37.0511" rx="2" fill="#D4EDFF"/>
<path d="M233.623 102.372V151.774" stroke="#FFB0B0" stroke-linecap="square"/>
<rect x="230.182" y="105.803" width="6.88406" height="39.7956" rx="2" fill="#FFB0B0"/>
<path d="M252.209 90.022V118.839" stroke="#D4EDFF" stroke-linecap="square"/>
<rect x="248.768" y="94.1387" width="6.88406" height="19.2117" rx="2" fill="#D4EDFF"/>
<path d="M270.797 60.5181V120.898" stroke="#FFB0B0" stroke-linecap="square"/>
<rect x="267.355" y="65.3208" width="6.88406" height="50.0876" rx="2" fill="#FFB0B0"/>
<path d="M289.383 74.9272V117.467" stroke="#D4EDFF" stroke-linecap="square"/>
<rect x="285.941" y="83.8472" width="6.88406" height="24.7007" rx="2" fill="#D4EDFF"/>
<path d="M307.971 79.73V127.759" stroke="#D4EDFF" stroke-linecap="square"/>
<rect x="304.529" y="101" width="6.88406" height="17.8394" rx="2" fill="#D4EDFF"/>
<path d="M326.557 46.1094V94.1386" stroke="#FFB0B0" stroke-linecap="square"/>
<rect x="323.115" y="50.9121" width="6.88406" height="37.7372" rx="2" fill="#FFB0B0"/>
<path d="M196.448 24.9673C198.666 24.9673 200.456 26.7581 200.456 28.9565C200.456 31.1549 198.666 32.9458 196.448 32.9458C194.231 32.9456 192.442 31.1547 192.441 28.9565C192.441 26.7583 194.231 24.9675 196.448 24.9673Z" fill="white" stroke="#FFB0B0" stroke-width="3"/>
<path d="M85.6162 169.055C87.834 169.055 89.624 170.846 89.624 173.044C89.6239 175.242 87.834 177.033 85.6162 177.033C83.3986 177.033 81.6095 175.242 81.6094 173.044C81.6094 170.846 83.3986 169.055 85.6162 169.055Z" fill="white" stroke="#FFB0B0" stroke-width="3"/>
</g>
<path opacity="0.26" d="M24 36.1618L27.6333 40.6119C31.2667 45.062 38.5333 53.9623 45.8 59.5704C53.0667 65.1784 60.3333 67.4942 67.6 66.2195C74.8667 64.9447 82.1333 60.0794 89.4 62.5251C96.6667 64.9708 103.933 74.7275 111.2 80.8882C118.467 87.0488 125.733 89.6134 133 86.9592C140.267 84.3051 147.533 76.4322 154.8 67.2389C162.067 58.0456 169.333 47.5318 176.6 41.3662C183.867 35.2006 191.133 33.3831 198.4 31.7982C205.667 30.2134 212.933 28.8612 220.2 30.6732C227.467 32.4851 234.733 37.4612 242 46.1637C249.267 54.8663 256.533 67.2953 263.8 59.8308C271.067 52.3664 278.333 25.0084 285.6 16.2818C292.867 7.55524 300.133 17.46 307.4 31.5717C314.667 45.6835 321.933 64.0023 329.2 65.0403C336.467 66.0783 343.733 49.8356 347.367 41.7142L351 33.5928" stroke="white"/>
<g opacity="0.33">
<path fill-rule="evenodd" clip-rule="evenodd" d="M24 157.659L34.9278 139.496C41.2478 128.992 54.3234 124.991 65.2986 130.202C77.1716 135.841 91.1302 134.408 101.654 126.47L107.173 122.308C117.329 114.648 130.19 111.69 142.601 114.159C153.753 116.378 164.797 109.857 168.426 98.9122L181.782 58.6301C185.255 48.1538 196.427 42.5231 206.734 46.0536C212.775 48.1228 217.457 53.0359 219.298 59.2389L235.362 113.337C238.235 123.012 248.281 128.488 257.799 125.568C260.995 124.588 263.86 122.724 266.073 120.184L272.13 113.236C281.109 102.934 295.89 100.283 307.795 106.839C320.147 113.641 335.288 112.368 346.372 103.596L351 99.9332V192.323H24V157.659Z" fill="url(#paint0_linear_1072_811)"/>
<path d="M24 157.659L34.9278 139.496C41.2478 128.992 54.3234 124.991 65.2986 130.202C77.1716 135.841 91.1302 134.408 101.654 126.47L107.173 122.308C117.329 114.648 130.19 111.69 142.601 114.159C153.753 116.378 164.797 109.857 168.426 98.9122L181.782 58.6301C185.255 48.1538 196.427 42.5231 206.734 46.0536C212.775 48.1228 217.457 53.0359 219.298 59.2389L235.362 113.337C238.235 123.012 248.281 128.488 257.799 125.568C260.995 124.588 263.86 122.724 266.073 120.184L272.13 113.236C281.109 102.934 295.89 100.283 307.795 106.839C320.147 113.641 335.288 112.368 346.372 103.596L351 99.9332" stroke="url(#paint1_linear_1072_811)" stroke-opacity="0.69" stroke-width="2"/>
</g>
<path opacity="0.22" d="M24 51L28.1923 53.9913C32.3846 56.9826 40.7692 62.9652 49.1538 73.6857C57.5385 84.4063 65.9231 99.8648 74.3077 96.8197C82.6923 93.7746 91.0769 72.2258 99.4615 68.7808C107.846 65.3358 116.231 79.9946 124.615 90.0688C133 100.143 141.385 105.633 149.769 112.247C158.154 118.861 166.538 126.6 174.923 125.963C183.308 125.327 191.692 116.315 200.077 101.867C208.462 87.4196 216.846 67.5357 225.231 62.1361C233.615 56.7365 242 65.8211 250.385 65.4317C258.769 65.0424 267.154 55.1791 275.538 52.0676C283.923 48.9561 292.308 52.5964 300.692 65.952C309.077 79.3077 317.462 102.379 325.846 103.484C334.231 104.589 342.615 83.7275 346.808 73.297L351 62.8664" stroke="white" stroke-opacity="0.3"/>
<defs>
<linearGradient id="paint0_linear_1072_811" x1="24" y1="45" x2="24" y2="192.323" gradientUnits="userSpaceOnUse">
<stop stop-color="#F1F3FF"/>
<stop offset="1" stop-color="#F1F3FF" stop-opacity="0.01"/>
</linearGradient>
<linearGradient id="paint1_linear_1072_811" x1="24" y1="151" x2="351" y2="51.6589" gradientUnits="userSpaceOnUse">
<stop stop-color="#D5ADC7"/>
<stop offset="1" stop-color="#B0A7C4"/>
</linearGradient>
</defs>
</svg>
